<svg width="181" height="68" viewBox="0 0 181 68" fill="none" xmlns="http://www.w3.org/2000/svg">
<path d="M39.3602 6.16C40.3522 6.352 41.0882 6.688 41.5682 7.168C42.0802 7.648 42.3362 8.208 42.3362 8.848C42.3362 9.904 42.0322 10.672 41.4242 11.152C40.8482 11.632 39.9202 11.824 38.6402 11.728C35.7602 11.504 33.5042 11.36 31.8722 11.296C30.2722 11.2 28.1602 11.136 25.5362 11.104C24.3522 16.992 23.2642 22.912 22.2722 28.864C21.9202 31.04 21.5522 33.568 21.1682 36.448C20.7842 39.296 20.5282 41.6 20.4002 43.36C20.3362 44.288 19.9522 45.008 19.2482 45.52C18.5442 46 17.6962 46.24 16.7042 46.24C15.6482 46.24 14.8322 45.984 14.2562 45.472C13.6802 44.96 13.3922 44.288 13.3922 43.456C13.3922 42.688 13.5042 41.424 13.7282 39.664C13.9842 37.872 14.2722 36 14.5922 34.048C14.9442 32.096 15.2162 30.4 15.4082 28.96C15.7602 26.528 16.1602 24.112 16.6082 21.712C17.0562 19.312 17.5042 17.04 17.9522 14.896C18.0482 14.416 18.1602 13.872 18.2882 13.264C18.4162 12.624 18.5602 11.92 18.7202 11.152C15.5842 11.248 13.1202 11.504 11.3282 11.92C9.53619 12.336 8.25619 12.928 7.48819 13.696C6.75219 14.432 6.38419 15.392 6.38419 16.576C6.38419 17.664 6.70419 18.704 7.34419 19.696C7.47219 19.92 7.53619 20.16 7.53619 20.416C7.53619 21.024 7.16819 21.6 6.43219 22.144C5.72819 22.656 4.99219 22.912 4.22419 22.912C3.68019 22.912 3.23219 22.752 2.88019 22.432C2.24019 21.888 1.71219 21.12 1.29619 20.128C0.880188 19.104 0.672188 17.952 0.672188 16.672C0.672188 13.952 1.55219 11.776 3.31219 10.144C5.10419 8.48 7.80819 7.264 11.4242 6.496C15.0722 5.728 19.7442 5.344 25.4402 5.344C28.9602 5.344 31.7602 5.408 33.8402 5.536C35.9522 5.664 37.7922 5.872 39.3602 6.16ZM36.1221 46.24C34.1381 46.24 32.5541 45.52 31.3701 44.08C30.1861 42.64 29.5941 40.752 29.5941 38.416C29.5941 35.856 30.1861 33.44 31.3701 31.168C32.5541 28.864 34.1221 27.024 36.0741 25.648C38.0581 24.24 40.1541 23.536 42.3621 23.536C43.0661 23.536 43.5301 23.68 43.7541 23.968C44.0101 24.224 44.2181 24.704 44.3781 25.408C45.0501 25.28 45.7541 25.216 46.4901 25.216C48.0581 25.216 48.8421 25.776 48.8421 26.896C48.8421 27.568 48.6021 29.168 48.1221 31.696C47.3861 35.376 47.0181 37.936 47.0181 39.376C47.0181 39.856 47.1301 40.24 47.3541 40.528C47.6101 40.816 47.9301 40.96 48.3141 40.96C48.9221 40.96 49.6581 40.576 50.5221 39.808C51.3861 39.008 52.5541 37.728 54.0261 35.968C54.4101 35.52 54.8421 35.296 55.3221 35.296C55.7381 35.296 56.0581 35.488 56.2821 35.872C56.5381 36.256 56.6661 36.784 56.6661 37.456C56.6661 38.736 56.3621 39.728 55.7541 40.432C54.4421 42.064 53.0501 43.44 51.5781 44.56C50.1061 45.68 48.6821 46.24 47.3061 46.24C46.2501 46.24 45.2741 45.888 44.3781 45.184C43.5141 44.448 42.8581 43.456 42.4101 42.208C40.7461 44.896 38.6501 46.24 36.1221 46.24ZM37.8501 41.392C38.5541 41.392 39.2261 40.976 39.8661 40.144C40.5061 39.312 40.9701 38.208 41.2581 36.832L43.0341 28C41.6901 28.032 40.4421 28.544 39.2901 29.536C38.1701 30.496 37.2741 31.776 36.6021 33.376C35.9301 34.976 35.5941 36.672 35.5941 38.464C35.5941 39.456 35.7861 40.192 36.1701 40.672C36.5861 41.152 37.1461 41.392 37.8501 41.392ZM61.6929 47.296C60.0289 47.296 58.7489 46.912 57.8529 46.144C56.9889 45.376 56.5569 44.512 56.5569 43.552C56.5569 42.72 56.8609 42 57.4689 41.392C58.0769 40.784 58.9729 40.48 60.1569 40.48C60.5729 40.48 61.0529 40.528 61.5969 40.624C62.1729 40.688 62.6049 40.736 62.8929 40.768C62.8609 39.936 62.6689 39.152 62.3169 38.416C61.9969 37.68 61.5809 36.976 61.0689 36.304C60.5569 35.6 60.0769 34.992 59.6289 34.48C58.6369 36.368 57.6449 37.936 56.6529 39.184C55.6929 40.432 54.6369 41.616 53.4849 42.736C52.9089 43.312 52.3009 43.6 51.6609 43.6C51.1489 43.6 50.7329 43.424 50.4129 43.072C50.0929 42.688 49.9329 42.224 49.9329 41.68C49.9329 41.04 50.1569 40.448 50.6049 39.904L51.2289 39.136C52.9889 36.96 54.3169 35.168 55.2129 33.76C55.7569 32.832 56.3969 31.6 57.1329 30.064C57.8689 28.496 58.5889 26.88 59.2929 25.216C59.9009 23.808 61.1649 23.104 63.0849 23.104C63.9809 23.104 64.6049 23.184 64.9569 23.344C65.3089 23.504 65.4849 23.76 65.4849 24.112C65.4849 24.304 65.4209 24.608 65.2929 25.024C65.1649 25.44 64.9889 25.856 64.7649 26.272C64.1889 27.424 63.9009 28.4 63.9009 29.2C63.9009 29.68 64.0609 30.208 64.3809 30.784C64.7329 31.36 65.2609 32.08 65.9649 32.944C66.9889 34.288 67.7569 35.44 68.2689 36.4C68.8129 37.328 69.0849 38.352 69.0849 39.472C69.0849 39.792 69.0529 40.24 68.9889 40.816C70.5569 40.208 72.3969 38.592 74.5089 35.968C74.8929 35.52 75.3249 35.296 75.8049 35.296C76.2209 35.296 76.5409 35.488 76.7649 35.872C77.0209 36.256 77.1489 36.784 77.1489 37.456C77.1489 38.672 76.8449 39.664 76.2369 40.432C74.6369 42.416 73.1009 43.776 71.6289 44.512C70.1889 45.216 68.3969 45.6 66.2529 45.664C64.9729 46.752 63.4529 47.296 61.6929 47.296ZM100.993 35.296C101.409 35.296 101.729 35.488 101.953 35.872C102.209 36.256 102.337 36.784 102.337 37.456C102.337 38.736 102.033 39.728 101.425 40.432C99.9853 42.192 98.5293 43.6 97.0573 44.656C95.5853 45.712 93.8413 46.24 91.8253 46.24C89.3613 46.24 87.3773 45.536 85.8733 44.128C84.3693 42.72 83.6173 40.848 83.6173 38.512C83.6173 37.264 84.2573 36.368 85.5373 35.824C86.9453 35.216 87.9533 34.576 88.5613 33.904C89.1693 33.2 89.4733 32.352 89.4733 31.36C89.4733 30.784 89.3453 30.352 89.0893 30.064C88.8653 29.776 88.5773 29.632 88.2253 29.632C87.3613 29.632 86.4013 30.256 85.3453 31.504C84.3213 32.752 83.3613 34.368 82.4653 36.352C81.5693 38.304 80.8653 40.32 80.3533 42.4C80.0013 43.904 79.5853 44.928 79.1053 45.472C78.6573 45.984 77.9373 46.24 76.9453 46.24C75.9533 46.24 75.2173 45.888 74.7373 45.184C74.2893 44.448 73.9853 43.328 73.8253 41.824C73.6653 40.32 73.5853 38.112 73.5853 35.2C73.5853 30.272 74.0813 25.136 75.0733 19.792C76.0973 14.448 77.5853 9.968 79.5373 6.352C81.5213 2.704 83.8893 0.879997 86.6413 0.879997C88.1133 0.879997 89.2973 1.52 90.1933 2.8C91.1213 4.048 91.5853 5.68 91.5853 7.696C91.5853 10.928 90.6413 14.288 88.7533 17.776C86.8653 21.232 83.7933 25.28 79.5373 29.92C79.4413 31.584 79.3933 33.296 79.3933 35.056C80.9293 31.056 82.6893 28.16 84.6733 26.368C86.6573 24.544 88.5133 23.632 90.2413 23.632C91.8413 23.632 93.1213 24.176 94.0813 25.264C95.0733 26.352 95.5693 27.696 95.5693 29.296C95.5693 31.056 95.1213 32.672 94.2253 34.144C93.3293 35.616 91.7933 36.928 89.6173 38.08C89.7453 38.944 90.1293 39.648 90.7693 40.192C91.4413 40.704 92.2413 40.96 93.1693 40.96C94.1613 40.96 95.1213 40.576 96.0493 39.808C96.9773 39.04 98.1933 37.76 99.6973 35.968C100.081 35.52 100.513 35.296 100.993 35.296ZM85.6333 5.632C85.0573 5.632 84.4173 6.464 83.7133 8.128C83.0093 9.76 82.3213 11.984 81.6493 14.8C81.0093 17.584 80.4813 20.624 80.0653 23.92C82.0493 21.584 83.6813 19.04 84.9613 16.288C86.2733 13.536 86.9293 11.04 86.9293 8.8C86.9293 7.776 86.8173 6.992 86.5933 6.448C86.3693 5.904 86.0493 5.632 85.6333 5.632ZM123.044 35.392C123.46 35.392 123.78 35.6 124.004 36.016C124.26 36.4 124.388 36.896 124.388 37.504C124.388 38.24 124.276 38.816 124.052 39.232C123.828 39.648 123.476 40.016 122.996 40.336L113.78 46.528C112.564 53.152 110.964 58.352 108.98 62.128C107.028 65.936 104.532 67.84 101.492 67.84C99.8601 67.84 98.5321 67.328 97.5081 66.304C96.4841 65.312 95.9721 64 95.9721 62.368C95.9721 60.864 96.3081 59.328 96.9801 57.76C97.6841 56.192 98.9641 54.384 100.82 52.336C102.708 50.32 105.364 48 108.788 45.376L108.932 44.272C109.156 43.088 109.412 41.392 109.7 39.184C109.06 41.488 108.164 43.248 107.012 44.464C105.86 45.648 104.644 46.24 103.364 46.24C101.924 46.24 100.74 45.584 99.8121 44.272C98.9161 42.928 98.4681 41.264 98.4681 39.28C98.4681 36.88 98.6281 34.688 98.9481 32.704C99.2681 30.688 99.7961 28.56 100.532 26.32C100.852 25.36 101.3 24.672 101.876 24.256C102.452 23.84 103.364 23.632 104.612 23.632C105.316 23.632 105.796 23.744 106.052 23.968C106.34 24.192 106.484 24.528 106.484 24.976C106.484 25.232 106.308 26.096 105.956 27.568C105.636 28.752 105.38 29.824 105.188 30.784C104.932 32.096 104.708 33.36 104.516 34.576C104.324 35.76 104.228 36.736 104.228 37.504C104.228 38.72 104.564 39.328 105.236 39.328C105.716 39.328 106.308 38.848 107.012 37.888C107.748 36.928 108.516 35.472 109.316 33.52C110.148 31.568 110.948 29.168 111.716 26.32C111.972 25.36 112.356 24.672 112.868 24.256C113.412 23.84 114.212 23.632 115.268 23.632C116.004 23.632 116.516 23.728 116.804 23.92C117.092 24.112 117.236 24.432 117.236 24.88C117.236 25.68 116.82 28.432 115.988 33.136L114.74 40.864C117.204 39.008 119.604 37.312 121.94 35.776C122.356 35.52 122.724 35.392 123.044 35.392ZM102.02 63.184C102.82 63.184 103.716 62.256 104.708 60.4C105.7 58.544 106.692 55.456 107.684 51.136C105.22 53.216 103.428 55.104 102.308 56.8C101.22 58.528 100.676 60.032 100.676 61.312C100.676 61.856 100.772 62.304 100.964 62.656C101.188 63.008 101.54 63.184 102.02 63.184ZM133.917 46.24C132.061 46.24 129.965 46.08 127.629 45.76C126.349 45.6 125.469 45.264 124.989 44.752C124.509 44.24 124.301 43.408 124.365 42.256C124.589 39.088 125.117 35.184 125.949 30.544C126.781 25.872 127.789 21.376 128.973 17.056C129.197 16.256 129.645 15.696 130.317 15.376C130.989 15.056 131.869 14.896 132.957 14.896C134.909 14.896 135.885 15.44 135.885 16.528C135.885 16.976 135.789 17.488 135.597 18.064C134.765 20.624 133.933 24.064 133.101 28.384C132.269 32.672 131.677 36.768 131.325 40.672C132.285 40.768 133.373 40.816 134.589 40.816C140.189 40.816 144.365 39.12 147.117 35.728C149.901 32.336 151.293 27.808 151.293 22.144C151.293 18.336 150.205 15.392 148.029 13.312C145.853 11.232 142.781 10.192 138.813 10.192C136.253 10.192 133.709 10.592 131.181 11.392C128.685 12.192 126.429 13.248 124.413 14.56C123.997 14.848 123.549 14.992 123.069 14.992C122.525 14.992 122.093 14.768 121.773 14.32C121.453 13.84 121.293 13.264 121.293 12.592C121.293 11.824 121.421 11.2 121.677 10.72C121.933 10.208 122.365 9.744 122.973 9.328C125.181 7.824 127.773 6.688 130.749 5.92C133.725 5.12 136.589 4.72 139.341 4.72C143.245 4.72 146.621 5.408 149.469 6.784C152.317 8.128 154.509 10.112 156.045 12.736C157.581 15.36 158.349 18.528 158.349 22.24C158.349 27.072 157.389 31.296 155.469 34.912C153.549 38.496 150.749 41.28 147.069 43.264C143.389 45.248 139.005 46.24 133.917 46.24ZM169.674 46.24C167.786 46.24 166.17 45.776 164.826 44.848C163.514 43.888 162.522 42.64 161.85 41.104C161.178 39.568 160.842 37.92 160.842 36.16C160.842 33.728 161.29 31.568 162.186 29.68C163.114 27.76 164.362 26.272 165.93 25.216C167.498 24.128 169.258 23.584 171.21 23.584C173.098 23.584 174.714 24.064 176.058 25.024C177.402 25.952 178.41 27.184 179.082 28.72C179.754 30.256 180.09 31.904 180.09 33.664C180.09 36.096 179.626 38.272 178.698 40.192C177.77 42.08 176.506 43.568 174.906 44.656C173.338 45.712 171.594 46.24 169.674 46.24ZM170.202 41.056C171.29 41.056 172.202 40.464 172.938 39.28C173.706 38.096 174.09 36.368 174.09 34.096C174.09 32.336 173.77 31.008 173.13 30.112C172.49 29.216 171.722 28.768 170.826 28.768C169.674 28.768 168.714 29.36 167.946 30.544C167.21 31.696 166.842 33.424 166.842 35.728C166.842 37.552 167.162 38.896 167.802 39.76C168.442 40.624 169.242 41.056 170.202 41.056Z" fill="url(#paint0_linear_238_32)"/>
<defs>
<linearGradient id="paint0_linear_238_32" x1="194" y1="-3" x2="-4.99999" y2="46" gradientUnits="userSpaceOnUse">
<stop stop-color="#1EA941" stop-opacity="0.42"/>
<stop offset="0.99135" stop-color="#1EA941"/>
</linearGradient>
</defs>
</svg>
